<?xml version="1.0" encoding="UTF-8"?>
<svg id="Laag_2" data-name="Laag 2" xmlns="http://www.w3.org/2000/svg" viewBox="0 0 1889.24 383.11">
  <defs>
    <style>
      .cls-1 {
        fill: #121212;
      }

      .cls-1, .cls-2 {
        stroke-width: 0px;
      }

      .cls-2 {
        fill: #010101;
      }
    </style>
  </defs>
  <g id="Laag_1-2" data-name="Laag 1">
    <g>
      <polyline class="cls-1" points="256.78 159.19 188.97 159.19 188.97 271.96 111.73 271.96 111.73 0 188.97 0 188.97 101.17 256.78 101.17 256.78 0 334.38 0 334.38 271.96 256.78 271.96 256.78 159.19"/>
      <path class="cls-1" d="m517.13,212.85h-70.35l-10.88,59.11h-79.05L419.59,0h125.1l62.37,271.96h-79.05l-10.88-59.11Zm-59.83-57.29h49.31l-15.96-87.39h-17.41l-15.95,87.39Z"/>
      <polygon class="cls-1" points="630.27 271.96 630.27 0 756.82 0 790.54 130.18 802.51 130.18 836.23 0 963.14 0 963.14 271.96 885.91 271.96 885.91 91.02 872.13 91.02 836.59 235.33 756.82 235.33 720.92 91.02 707.5 91.02 707.5 271.96 630.27 271.96"/>
      <polygon class="cls-1" points="1075.92 158.1 1075.92 271.96 998.68 271.96 998.68 0 1135.75 0 1135.75 62.01 1075.92 62.01 1075.92 104.43 1131.03 104.43 1131.03 158.1 1075.92 158.1"/>
      <rect class="cls-1" x="1164.75" width="77.24" height="271.96"/>
      <polygon class="cls-1" points="1456.29 271.96 1278.61 271.96 1278.61 0 1453.75 0 1453.75 62.01 1355.84 62.01 1355.84 104.43 1449.4 104.43 1449.4 158.1 1355.84 158.1 1355.84 209.95 1456.29 209.95 1456.29 271.96"/>
      <polygon class="cls-1" points="1617.65 271.96 1486.02 271.96 1486.02 0 1563.26 0 1563.26 209.95 1617.65 209.95 1617.65 271.96"/>
      <path class="cls-1" d="m1645.93,271.96V0h97.18c92.1,0,146.13,55.84,146.13,134.89s-54.39,137.07-145.77,137.07h-97.54Zm74.7-203.79v134.17h21.03c48.23,0,69.62-28.28,69.62-66.72s-21.76-67.45-69.98-67.45h-20.67Z"/>
      <path class="cls-1" d="m111.5,160.11C49.92,160.11,0,210.03,0,271.61s49.92,111.5,111.5,111.5,111.5-49.92,111.5-111.5c0-31.48-13.05-59.92-34.03-80.19v80.54h-77.24v-111.85c-.08,0-.15,0-.23,0"/>
      <path class="cls-2" d="m111.73,160.11v111.85h77.24v-80.54c-20.01-19.33-47.23-31.25-77.24-31.31"/>
    </g>
  </g>
</svg>